<svg width="172" height="48" viewBox="0 0 172 48" fill="none" xmlns="http://www.w3.org/2000/svg">
<g filter="url(#filter0_d_20_179)">
<path d="M22.5862 29V11.48H26.1382L27.8422 17.048C28.0182 17.608 28.1622 18.12 28.2742 18.584C28.3862 19.048 28.4582 19.384 28.4902 19.592C28.5222 19.384 28.5942 19.048 28.7062 18.584C28.8182 18.12 28.9542 17.608 29.1142 17.048L30.7462 11.48H34.2982V29H31.4902V23.552C31.4902 22.752 31.5142 21.88 31.5622 20.936C31.6102 19.992 31.6662 19.048 31.7302 18.104C31.7942 17.16 31.8662 16.264 31.9462 15.416C32.0422 14.568 32.1222 13.824 32.1862 13.184L29.8342 21.464H27.0982L24.6742 13.184C24.7542 13.792 24.8342 14.512 24.9142 15.344C24.9942 16.16 25.0662 17.04 25.1302 17.984C25.2102 18.912 25.2742 19.856 25.3222 20.816C25.3702 21.776 25.3942 22.688 25.3942 23.552V29H22.5862ZM41.3688 29.24C40.0088 29.24 38.9368 28.88 38.1528 28.16C37.3688 27.44 36.9768 26.472 36.9768 25.256C36.9768 23.96 37.4088 22.96 38.2728 22.256C39.1368 21.552 40.3608 21.2 41.9448 21.2H45.2328V20.072C45.2328 19.432 45.0248 18.936 44.6088 18.584C44.1928 18.216 43.6248 18.032 42.9048 18.032C42.2488 18.032 41.7048 18.176 41.2728 18.464C40.8408 18.752 40.5848 19.144 40.5048 19.64H37.5768C37.7208 18.392 38.2808 17.4 39.2568 16.664C40.2328 15.928 41.4808 15.56 43.0008 15.56C44.6168 15.56 45.8888 15.968 46.8168 16.784C47.7608 17.584 48.2328 18.672 48.2328 20.048V29H45.3288V26.696H44.8488L45.3288 26.048C45.3288 27.024 44.9688 27.8 44.2488 28.376C43.5288 28.952 42.5688 29.24 41.3688 29.24ZM42.3528 26.984C43.2008 26.984 43.8888 26.768 44.4168 26.336C44.9608 25.904 45.2328 25.344 45.2328 24.656V23.048H41.9928C41.3848 23.048 40.8968 23.224 40.5288 23.576C40.1608 23.928 39.9768 24.392 39.9768 24.968C39.9768 25.592 40.1848 26.088 40.6008 26.456C41.0328 26.808 41.6168 26.984 42.3528 26.984ZM52.2794 29V15.8H55.1114V18.32H55.8554L54.9674 19.856C54.9674 18.432 55.2874 17.36 55.9274 16.64C56.5674 15.92 57.5114 15.56 58.7594 15.56C60.1834 15.56 61.3034 16 62.1194 16.88C62.9354 17.76 63.3434 18.976 63.3434 20.528V21.488H60.1994V20.744C60.1994 19.896 59.9754 19.24 59.5274 18.776C59.0954 18.312 58.4954 18.08 57.7274 18.08C56.9434 18.08 56.3354 18.312 55.9034 18.776C55.4874 19.24 55.2794 19.896 55.2794 20.744V29H52.2794ZM73.6301 29C72.7661 29 72.0061 28.824 71.3501 28.472C70.7101 28.12 70.2061 27.624 69.8381 26.984C69.4701 26.328 69.2861 25.576 69.2861 24.728V14.192H65.0621V11.48H72.2861V24.728C72.2861 25.208 72.4221 25.592 72.6941 25.88C72.9821 26.152 73.3661 26.288 73.8461 26.288H77.8301V29H73.6301ZM86.0047 29.216C84.8847 29.216 83.9087 29.008 83.0767 28.592C82.2607 28.16 81.6207 27.56 81.1567 26.792C80.7087 26.008 80.4847 25.088 80.4847 24.032V20.768C80.4847 19.712 80.7087 18.8 81.1567 18.032C81.6207 17.248 82.2607 16.648 83.0767 16.232C83.9087 15.8 84.8847 15.584 86.0047 15.584C87.1407 15.584 88.1167 15.8 88.9327 16.232C89.7487 16.648 90.3807 17.248 90.8287 18.032C91.2927 18.8 91.5247 19.704 91.5247 20.744V24.032C91.5247 25.088 91.2927 26.008 90.8287 26.792C90.3807 27.56 89.7487 28.16 88.9327 28.592C88.1167 29.008 87.1407 29.216 86.0047 29.216ZM86.0047 26.6C86.8047 26.6 87.4207 26.384 87.8527 25.952C88.3007 25.504 88.5247 24.864 88.5247 24.032V20.768C88.5247 19.92 88.3007 19.28 87.8527 18.848C87.4207 18.416 86.8047 18.2 86.0047 18.2C85.2207 18.2 84.6047 18.416 84.1567 18.848C83.7087 19.28 83.4847 19.92 83.4847 20.768V24.032C83.4847 24.864 83.7087 25.504 84.1567 25.952C84.6047 26.384 85.2207 26.6 86.0047 26.6ZM95.0433 29V15.8H97.9713V18.32H98.7873L97.9713 19.016C97.9713 17.928 98.2833 17.08 98.9073 16.472C99.5473 15.864 100.419 15.56 101.523 15.56C102.819 15.56 103.851 15.992 104.619 16.856C105.403 17.72 105.795 18.88 105.795 20.336V29H102.795V20.648C102.795 19.848 102.587 19.232 102.171 18.8C101.755 18.368 101.171 18.152 100.419 18.152C99.6833 18.152 99.0993 18.376 98.6673 18.824C98.2513 19.272 98.0433 19.912 98.0433 20.744V29H95.0433ZM108.93 29V11.48H112.482L114.186 17.048C114.362 17.608 114.506 18.12 114.618 18.584C114.73 19.048 114.802 19.384 114.834 19.592C114.866 19.384 114.938 19.048 115.05 18.584C115.162 18.12 115.298 17.608 115.458 17.048L117.09 11.48H120.642V29H117.834V23.552C117.834 22.752 117.858 21.88 117.906 20.936C117.954 19.992 118.01 19.048 118.074 18.104C118.138 17.16 118.21 16.264 118.29 15.416C118.386 14.568 118.466 13.824 118.53 13.184L116.178 21.464H113.442L111.018 13.184C111.098 13.792 111.178 14.512 111.258 15.344C111.338 16.16 111.41 17.04 111.474 17.984C111.554 18.912 111.618 19.856 111.666 20.816C111.714 21.776 111.738 22.688 111.738 23.552V29H108.93ZM123.705 29V11.48H127.377L132.249 25.64C132.201 25.128 132.145 24.528 132.081 23.84C132.033 23.136 131.993 22.424 131.961 21.704C131.929 20.968 131.913 20.328 131.913 19.784V11.48H134.649V29H130.977L126.153 14.84C126.185 15.304 126.225 15.864 126.273 16.52C126.321 17.176 126.361 17.848 126.393 18.536C126.425 19.224 126.441 19.856 126.441 20.432V29H123.705ZM138.263 29V26.144L145.295 14.264H138.431V11.48H148.607V14.336L141.551 26.216H148.871V29H138.263Z" fill="white"/>
</g>
<g filter="url(#filter1_d_20_179)">
<path d="M150.168 38.44V33.8H152.208C153.141 33.8 153.888 33.56 154.448 33.08C155.008 32.5733 155.261 31.88 155.208 31L154.808 24.76C154.701 23.16 155.168 21.88 156.208 20.92C157.274 19.9333 158.728 19.44 160.568 19.44V19.72C158.728 19.72 157.274 19.24 156.208 18.28C155.168 17.32 154.701 16.0533 154.808 14.48L155.208 8.24C155.261 7.25333 155.008 6.53333 154.448 6.08C153.914 5.62667 153.168 5.4 152.208 5.4H150.168V0.799998H152.928C154.421 0.799998 155.728 1.08 156.848 1.64C157.994 2.2 158.861 3 159.448 4.04C160.034 5.08 160.288 6.32 160.208 7.76L159.808 14.04C159.728 15.1067 159.954 15.92 160.488 16.48C161.021 17.04 161.888 17.32 163.088 17.32H167.848V21.92H163.088C161.888 21.92 161.021 22.2 160.488 22.76C159.954 23.32 159.728 24.1467 159.808 25.24L160.208 31.32C160.288 32.7867 160.034 34.04 159.448 35.08C158.861 36.1467 157.994 36.9733 156.848 37.56C155.728 38.1467 154.421 38.44 152.928 38.44H150.168Z" fill="#22AC53"/>
</g>
<g filter="url(#filter2_d_20_179)">
<path d="M19.0878 39.44C17.5945 39.44 16.2745 39.1467 15.1278 38.56C14.0078 37.9733 13.1545 37.1467 12.5678 36.08C11.9811 35.04 11.7278 33.7867 11.8078 32.32L12.2078 26.24C12.2878 25.1467 12.0611 24.32 11.5278 23.76C11.0211 23.2 10.1545 22.92 8.92781 22.92H4.16781V18.32H8.92781C10.1545 18.32 11.0211 18.04 11.5278 17.48C12.0611 16.92 12.2878 16.1067 12.2078 15.04L11.8078 8.76C11.7278 7.32 11.9811 6.08 12.5678 5.04C13.1545 4 14.0078 3.2 15.1278 2.64C16.2745 2.08 17.5945 1.8 19.0878 1.8H21.8478V6.4H19.8078C18.8478 6.4 18.0878 6.62667 17.5278 7.08C16.9945 7.53333 16.7545 8.25333 16.8078 9.24L17.2078 15.48C17.3145 17.0533 16.8478 18.32 15.8078 19.28C14.7678 20.24 13.3145 20.72 11.4478 20.72V20.44C13.2878 20.44 14.7278 20.9333 15.7678 21.92C16.8345 22.88 17.3145 24.16 17.2078 25.76L16.8078 32C16.7811 32.88 17.0345 33.5733 17.5678 34.08C18.1278 34.56 18.8745 34.8 19.8078 34.8H21.8478V39.44H19.0878Z" fill="#22AC53"/>
</g>
<defs>
<filter id="filter0_d_20_179" x="18.5862" y="11.48" width="134.285" height="25.76" filterUnits="userSpaceOnUse" color-interpolation-filters="sRGB">
<feFlood flood-opacity="0" result="BackgroundImageFix"/>
<feColorMatrix in="SourceAlpha" type="matrix" values="0 0 0 0 0 0 0 0 0 0 0 0 0 0 0 0 0 0 127 0" result="hardAlpha"/>
<feOffset dy="4"/>
<feGaussianBlur stdDeviation="2"/>
<feComposite in2="hardAlpha" operator="out"/>
<feColorMatrix type="matrix" values="0 0 0 0 0 0 0 0 0 0 0 0 0 0 0 0 0 0 0.25 0"/>
<feBlend mode="normal" in2="BackgroundImageFix" result="effect1_dropShadow_20_179"/>
<feBlend mode="normal" in="SourceGraphic" in2="effect1_dropShadow_20_179" result="shape"/>
</filter>
<filter id="filter1_d_20_179" x="146.168" y="0.799995" width="25.68" height="45.64" filterUnits="userSpaceOnUse" color-interpolation-filters="sRGB">
<feFlood flood-opacity="0" result="BackgroundImageFix"/>
<feColorMatrix in="SourceAlpha" type="matrix" values="0 0 0 0 0 0 0 0 0 0 0 0 0 0 0 0 0 0 127 0" result="hardAlpha"/>
<feOffset dy="4"/>
<feGaussianBlur stdDeviation="2"/>
<feComposite in2="hardAlpha" operator="out"/>
<feColorMatrix type="matrix" values="0 0 0 0 0 0 0 0 0 0 0 0 0 0 0 0 0 0 0.25 0"/>
<feBlend mode="normal" in2="BackgroundImageFix" result="effect1_dropShadow_20_179"/>
<feBlend mode="normal" in="SourceGraphic" in2="effect1_dropShadow_20_179" result="shape"/>
</filter>
<filter id="filter2_d_20_179" x="0.167816" y="1.8" width="25.68" height="45.64" filterUnits="userSpaceOnUse" color-interpolation-filters="sRGB">
<feFlood flood-opacity="0" result="BackgroundImageFix"/>
<feColorMatrix in="SourceAlpha" type="matrix" values="0 0 0 0 0 0 0 0 0 0 0 0 0 0 0 0 0 0 127 0" result="hardAlpha"/>
<feOffset dy="4"/>
<feGaussianBlur stdDeviation="2"/>
<feComposite in2="hardAlpha" operator="out"/>
<feColorMatrix type="matrix" values="0 0 0 0 0 0 0 0 0 0 0 0 0 0 0 0 0 0 0.25 0"/>
<feBlend mode="normal" in2="BackgroundImageFix" result="effect1_dropShadow_20_179"/>
<feBlend mode="normal" in="SourceGraphic" in2="effect1_dropShadow_20_179" result="shape"/>
</filter>
</defs>
</svg>
